<svg width="32" height="33" fill="none" xmlns="http://www.w3.org/2000/svg"><path d="M12.11 23.482c0-.094-.094-.188-.235-.188-.14 0-.234.094-.234.188 0 .093.093.187.234.14.14 0 .234-.047.234-.14Zm-1.454-.235c0 .094.094.235.235.235.093.047.234 0 .28-.094 0-.094-.046-.188-.187-.234-.14-.047-.28 0-.328.093Zm2.11-.047c-.141 0-.235.094-.235.235 0 .094.14.14.281.094.141-.047.235-.094.188-.188 0-.094-.14-.187-.234-.14Zm3.046-18c-6.468 0-11.437 4.97-11.437 11.438 0 5.203 3.234 9.656 7.922 11.25.61.094.797-.281.797-.563V24.42s-3.281.703-3.985-1.406c0 0-.515-1.36-1.265-1.688 0 0-1.078-.75.047-.75 0 0 1.171.094 1.828 1.22 1.031 1.827 2.719 1.312 3.422.984.093-.75.375-1.266.75-1.594-2.625-.281-5.297-.656-5.297-5.156 0-1.313.375-1.922 1.125-2.766-.14-.328-.516-1.547.14-3.188.938-.28 3.235 1.266 3.235 1.266.937-.281 1.922-.375 2.906-.375 1.031 0 2.016.094 2.953.375 0 0 2.25-1.594 3.235-1.266.656 1.641.234 2.86.14 3.188.75.844 1.219 1.453 1.219 2.766 0 4.5-2.766 4.875-5.39 5.156.421.375.796 1.078.796 2.203 0 1.547-.047 3.516-.047 3.89 0 .329.235.704.844.563 4.688-1.547 7.875-6 7.875-11.203 0-6.469-5.297-11.438-11.813-11.438Zm-6.89 16.172c-.094.047-.047.188 0 .282.094.046.187.093.281.046.047-.046.047-.187-.047-.28-.094-.048-.187-.095-.234-.048Zm-.516-.375c-.047.094 0 .14.094.188.094.047.188.047.234-.047 0-.047-.046-.094-.14-.14-.094-.048-.14-.048-.188 0Zm1.5 1.688c-.047.047-.047.187.094.281.094.094.234.14.281.047.047-.047.047-.188-.047-.281-.093-.094-.234-.14-.328-.047Zm-.515-.703c-.094.047-.094.187 0 .28.093.095.187.142.28.095.048-.047.048-.188 0-.282-.093-.093-.187-.14-.28-.093Z" fill="#EE3D2D"/></svg>